<?xml version="1.0" standalone="no"?><!DOCTYPE svg PUBLIC "-//W3C//DTD SVG 1.1//EN" "http://www.w3.org/Graphics/SVG/1.1/DTD/svg11.dtd"><svg t="1751188033002" class="icon" viewBox="0 0 1024 1024" version="1.1" xmlns="http://www.w3.org/2000/svg" p-id="15499" xmlns:xlink="http://www.w3.org/1999/xlink" width="200" height="200"><path d="M0 0m128 0l768 0q128 0 128 128l0 768q0 128-128 128l-768 0q-128 0-128-128l0-768q0-128 128-128Z" fill="#CF0715" p-id="15500"></path><path d="M712.554667 81.621333l-3.050667 1.173334c-0.384 3.84-1.194667 7.957333-1.194667 11.925333 0 41.301333-0.746667 82.645333 0.234667 123.904 0.277333 12.074667-4.202667 16.768-14.250667 20.757333-46.165333 18.346667-92.266667 36.693333-137.962666 56.106667a995.157333 995.157333 0 0 0-190.506667 106.538667 838.101333 838.101333 0 0 0-175.552 166.826666 684.522667 684.522667 0 0 0-99.669333 173.930667 598.442667 598.442667 0 0 0-41.429334 193.216c-0.576 15.146667 0.682667 16.213333 16.085334 16.192 41.706667 0 83.413333-0.085333 125.141333-0.234667 9.28 0 11.029333-2.261333 9.898667-12.672-7.253333-66.176-4.096-131.626667 13.397333-195.968a561.621333 561.621333 0 0 1 74.090667-162.346666 716.458667 716.458667 0 0 1 157.802666-169.386667 939.84 939.84 0 0 1 151.253334-96.512c15.274667-7.68 26.112-4.053333 40.213333 3.541333-3.818667 2.304-6.336 3.84-8.853333 5.482667-40.426667 25.408-82.090667 49.045333-120.874667 76.864a666.709333 666.709333 0 0 0-121.408 113.066667 577.450667 577.450667 0 0 0-91.712 146.346666 458.090667 458.090667 0 0 0-35.925333 143.616 441.813333 441.813333 0 0 0 8.789333 134.485334c2.304 10.069333 6.357333 14.336 17.237333 14.165333 44.245333-0.533333 88.490667 0 132.778667-0.192 11.882667 0 13.269333-2.176 7.637333-12.906667a397.973333 397.973333 0 0 1-39.253333-119.722666c-9.109333-57.642667-2.922667-114.24 14.293333-169.642667 23.594667-75.946667 67.690667-139.328 121.984-195.968 43.733333-45.376 94.08-82.922667 147.477334-116.074667a32.341333 32.341333 0 0 1 38.890666 4.608 12.522667 12.522667 0 0 1-2.133333 2.88c-21.76 16.064-44.16 31.36-65.365333 48.149334-60.458667 47.722667-113.152 102.869333-151.552 170.666666-42.026667 74.88-62.186667 154.090667-46.613334 240.554667a353.408 353.408 0 0 0 57.024 136.96c4.053333 7.018667 11.669333 11.114667 19.712 10.666667 49.962667-0.234667 99.946667 0 149.930667 0 4.16-0.277333 8.32-0.853333 12.416-1.749334l1.450667-3.328c-3.84-3.157333-7.637333-6.229333-11.456-9.450666-38.208-32.128-70.997333-68.586667-95.146667-112.661334a282.837333 282.837333 0 0 1-34.666667-104.021333c-8.362667-73.770667 10.218667-141.482667 48.917334-204.032 30.762667-49.706667 70.912-90.944 115.477333-128.170667 2.901333-2.026667 5.909333-3.882667 9.045333-5.546666 0.618667 10.773333 0.768 19.605333 1.706667 28.330666a21.162667 21.162667 0 0 1-7.637333 19.2c-15.957333 15.104-31.978667 30.250667-46.570667 46.656-37.44 42.261333-64.448 90.133333-75.733333 146.005334-17.237333 85.546667 8.533333 159.189333 62.485333 224.64a403.882667 403.882667 0 0 0 97.066667 85.674666c12.736 8 24.085333 18.346667 41.088 18.218667 57.322667-0.554667 114.624 0 171.946666 0 2.005333-0.213333 3.968-0.64 5.888-1.322667a15.296 15.296 0 0 0-7.957333-6.72c-18.069333-7.061333-36.458667-13.482667-54.336-21.013333a503.146667 503.146667 0 0 1-130.517333-78.421333c-41.109333-34.581333-74.453333-75.648-91.712-127.424-23.594667-70.698667-11.690667-137.621333 28.544-198.805334 29.077333-44.224 61.141333-86.4 92.544-129.130666 14.336-19.562667 14.762667-18.773333 35.797333-13.269334 38.208 9.962667 76.437333 19.456 114.645333 28.949334 3.456 0.362667 6.933333 0.362667 10.389334 0a24.021333 24.021333 0 0 0-1.770667-4.842667c-26.24-36.501333-52.416-73.002667-79.018667-109.312-4.48-6.186667-5.952-11.264-1.642666-18.069333 17.621333-27.733333 35.050667-55.594667 52.352-83.562667 7.637333-12.074667 14.677333-24.298667 23.616-39.168-3.84 0.426667-7.68 1.088-11.456 1.962667-41.813333 13.44-83.690667 26.88-125.290667 40.746666a13.333333 13.333333 0 0 1-17.194667-4.693333 10486.186667 10486.186667 0 0 0-71.68-86.08c-5.973333-7.061333-12.16-13.824-18.133333-20.586667z" fill="#FFFFFF" p-id="15501"></path></svg>
