<?xml version="1.0" standalone="no"?><!DOCTYPE svg PUBLIC "-//W3C//DTD SVG 1.1//EN" "http://www.w3.org/Graphics/SVG/1.1/DTD/svg11.dtd"><svg t="1751188098308" class="icon" viewBox="0 0 1024 1024" version="1.1" xmlns="http://www.w3.org/2000/svg" p-id="16798" xmlns:xlink="http://www.w3.org/1999/xlink" width="200" height="200"><path d="M1024 54.832C770.568 191.82 780.842 195.246 770.568 178.12c-6.848-27.398-17.124-13.7 253.432-123.29zM270.556 613.066c68.494-58.22 157.538-51.372 150.688-85.62-68.494 27.4-102.742 20.55-150.688 85.62z m-71.92-23.974c85.62-58.22 208.91-41.096 198.634-89.042-89.042 27.398-140.414 23.972-198.634 89.042zM119.866 551.42c85.62-58.22 256.856-27.398 260.28-85.62-119.866 37.674-178.086 13.7-260.28 85.62z m-75.344-41.096c85.62-58.22 315.076-17.124 332.2-92.468-119.866 37.672-250.006 17.124-332.2 92.468zM0 455.528c85.62-58.22 369.872-6.85 383.572-82.194C267.132 407.58 82.194 380.18 0 455.528z m219.184-106.168c85.62-27.398 167.812 17.124 171.238-17.124-71.92-6.848-102.744-27.398-171.238 17.124z m-71.92-54.796c102.742-17.124 222.608 47.946 232.884 0-95.894-13.7-150.69-37.672-232.884 0z m-58.22-99.318c106.166-3.424 250.006 123.292 270.554 65.07-123.29-17.122-164.388-99.316-270.554-65.07zM65.07 130.176c133.566 6.85 256.856 154.114 301.38 92.468C246.58 181.548 188.36 113.052 65.068 130.176z m-3.424-95.892c147.264 30.822 256.856 202.06 335.624 164.388C304.802 150.724 191.786 30.858 61.646 34.284z m369.872 613.03c-47.946-51.372 44.522-116.442 58.22-71.92 6.85 23.974-51.37 51.372-30.82 13.7 0-13.7-41.1 10.272-17.126 30.82 30.824 23.974 85.62-30.82 65.07-58.22-47.946-61.644-150.688 54.796-78.768 109.592 51.37 37.672 82.194-71.92 215.76-133.564 178.086-92.468 116.44-229.46 116.44-229.46-20.548-51.37-20.548-23.972-85.62 0-71.918 23.974-109.59 109.594-65.068 150.69 47.946 37.672 143.84-85.62 61.644-95.892-17.122 10.274 30.824 17.124 3.426 51.37-51.372 58.22-99.318-34.246-6.85-75.344 54.796-20.548 61.646-41.096 68.496-23.974 44.52 106.168-109.592 226.034-136.99 154.114-6.85-17.124-113.018 61.646-85.62 65.07 75.344 13.7-47.946 143.84-82.194 113.018z m332.2-489.74c-65.07-54.796-205.484 13.7-150.688 143.84 133.566 17.124 160.964-102.742 160.964-102.742-23.974-23.974-10.274-41.098-10.274-41.098z m-95.892 54.796c-3.424-17.124 27.4-47.946 47.946-37.672 13.7 27.4-34.246 51.372-47.946 37.672z m37.672-27.398c6.85 10.274-10.274 20.548-17.124 13.7-3.424-6.85 10.274-20.55 17.124-13.7zM404.12 643.888c-27.398 20.55-54.796 85.62-109.592 89.044 61.646-27.398 85.62-123.29 109.592-89.044z m6.85 20.55c-20.548 20.548-54.796 123.29-123.292 143.84 71.92-47.948 102.744-178.088 123.292-143.84z m13.7 17.122c-27.4 23.974-37.674 150.69-99.32 191.786 61.646-89.042 68.496-222.608 99.32-191.786z m13.698 6.85c-13.7 30.824-6.85 160.964-68.496 250.008 58.22-150.69 27.4-270.556 68.496-250.008z m17.124 0c3.424 41.098 13.7 226.034-17.124 301.38 30.822-133.566-30.822-297.954 17.124-301.38z m-54.796-219.184c51.37 171.238 184.936-68.494 202.06-157.538-157.54 92.468-232.884-3.424-202.06 157.54z m54.796-30.822c-17.124-78.77 27.398-34.248 109.592-78.77-10.274 41.098-82.194 164.388-109.592 78.77z m-75.344-202.06c-27.4 47.946 30.82 54.796 34.246 102.742 78.77 0 106.168-3.424 188.362-37.672-178.088-34.248-164.388-150.69-222.608-65.07z m61.644 82.194c-6.848-23.974-30.822-30.824-17.124-47.946 27.4-37.674 23.974 20.548 116.442 34.246-41.096 13.7-58.22 13.7-99.318 13.7z" fill="#0F9ECA" p-id="16799"></path></svg>