<?xml version="1.0" standalone="no"?><!DOCTYPE svg PUBLIC "-//W3C//DTD SVG 1.1//EN" "http://www.w3.org/Graphics/SVG/1.1/DTD/svg11.dtd"><svg t="1756241194663" class="icon" viewBox="0 0 1027 1024" version="1.1" xmlns="http://www.w3.org/2000/svg" p-id="1491" xmlns:xlink="http://www.w3.org/1999/xlink" width="200.5859375" height="200"><path d="M819.89039 1022.265864H204.189591A179.379871 179.379871 0 0 1 1.729772 819.884548V204.18375A179.458374 179.458374 0 0 1 204.189591 1.723931h615.700799A179.379871 179.379871 0 0 1 1022.271705 204.18375v615.700798A179.379871 179.379871 0 0 1 819.89039 1022.265864zM542.616997 333.400059V700.402639h309.930734a52.518658 52.518658 0 0 0 52.361652-52.597161V333.400059zM120.740662 558.390304v39.251612h141.855329a198.142141 198.142141 0 0 1-143.5824 55.658787v41.84222s4.239174 0.392516 11.618478 0.392516a213.999793 213.999793 0 0 0 169.88098-79.209755A208.58307 208.58307 0 0 0 480.599449 695.378432v-43.33378h-2.198091A198.063638 198.063638 0 0 1 339.293642 597.563413h141.305807v-39.251613H325.006055v-28.653677H472.749126v-39.879639H325.006055v-28.182658H472.749126v-39.801135H325.006055v-30.537755H480.599449V354.203414h-49.300026v-31.40129h-40.900181a426.272515 426.272515 0 0 0-9.969909 31.40129H220.596765s-2.512103-9.263381-9.969909-31.40129h-40.978684v31.40129h-48.90751v37.053522h156.378426v30.537755H128.433978v39.879639h148.68511v28.182658H128.433978v39.879638h148.68511v28.732181zM851.841202 661.151026H582.653642V372.808678h281.905083v275.310812a12.953032 12.953032 0 0 1-3.768155 9.106375 12.560516 12.560516 0 0 1-8.949368 3.925161z m-131.100386-196.258064h41.528206v100.876645a396.048773 396.048773 0 0 1-6.672774 59.740955h44.118813a370.456722 370.456722 0 0 0 5.102709-59.740955V464.892962h28.653678v-39.251613h-28.653678V394.240059h-42.391742v32.500335H608.795216V464.892962h67.198761A423.132386 423.132386 0 0 1 621.905255 625.196549h47.729961A500.301057 500.301057 0 0 0 720.740816 464.892962z" fill="#FFB300" p-id="1492"></path></svg>